<mxfile host="app.diagrams.net" agent="Mozilla/5.0 (Windows NT 10.0; Win64; x64) AppleWebKit/537.36 (KHTML, like Gecko) Chrome/141.0.0.0 Safari/537.36" version="28.2.8">
  <diagram id="6km5NPT36MtaAW2oapZT" name="Trang-1">
    <mxGraphModel dx="1042" dy="596" grid="1" gridSize="10" guides="1" tooltips="1" connect="1" arrows="1" fold="1" page="1" pageScale="1" pageWidth="827" pageHeight="1169" math="0" shadow="0">
      <root>
        <mxCell id="0" />
        <mxCell id="1" parent="0" />
        <mxCell id="5pTp0WcjzD7RnIztmCAo-1" value="Actor" style="shape=umlActor;verticalLabelPosition=bottom;verticalAlign=top;html=1;" vertex="1" parent="1">
          <mxGeometry x="140" y="390" width="30" height="60" as="geometry" />
        </mxCell>
        <mxCell id="5pTp0WcjzD7RnIztmCAo-2" value="" style="rounded=0;whiteSpace=wrap;html=1;" vertex="1" parent="1">
          <mxGeometry x="240" y="270" width="1010" height="320" as="geometry" />
        </mxCell>
        <mxCell id="5pTp0WcjzD7RnIztmCAo-8" style="edgeStyle=orthogonalEdgeStyle;rounded=0;orthogonalLoop=1;jettySize=auto;html=1;exitX=1;exitY=0.5;exitDx=0;exitDy=0;" edge="1" parent="1" source="5pTp0WcjzD7RnIztmCAo-3" target="5pTp0WcjzD7RnIztmCAo-4">
          <mxGeometry relative="1" as="geometry" />
        </mxCell>
        <mxCell id="5pTp0WcjzD7RnIztmCAo-9" value="include" style="edgeLabel;html=1;align=center;verticalAlign=middle;resizable=0;points=[];" vertex="1" connectable="0" parent="5pTp0WcjzD7RnIztmCAo-8">
          <mxGeometry x="0.0207" y="-2" relative="1" as="geometry">
            <mxPoint as="offset" />
          </mxGeometry>
        </mxCell>
        <mxCell id="5pTp0WcjzD7RnIztmCAo-3" value="đặt hàng" style="ellipse;whiteSpace=wrap;html=1;" vertex="1" parent="1">
          <mxGeometry x="294" y="390" width="120" height="80" as="geometry" />
        </mxCell>
        <mxCell id="5pTp0WcjzD7RnIztmCAo-10" style="edgeStyle=orthogonalEdgeStyle;rounded=0;orthogonalLoop=1;jettySize=auto;html=1;exitX=1;exitY=0.5;exitDx=0;exitDy=0;" edge="1" parent="1" source="5pTp0WcjzD7RnIztmCAo-4" target="5pTp0WcjzD7RnIztmCAo-5">
          <mxGeometry relative="1" as="geometry" />
        </mxCell>
        <mxCell id="5pTp0WcjzD7RnIztmCAo-11" value="include" style="edgeLabel;html=1;align=center;verticalAlign=middle;resizable=0;points=[];" vertex="1" connectable="0" parent="5pTp0WcjzD7RnIztmCAo-10">
          <mxGeometry x="0.0457" y="2" relative="1" as="geometry">
            <mxPoint as="offset" />
          </mxGeometry>
        </mxCell>
        <mxCell id="5pTp0WcjzD7RnIztmCAo-4" value="kiểm tra giỏ hàng" style="ellipse;whiteSpace=wrap;html=1;" vertex="1" parent="1">
          <mxGeometry x="530" y="390" width="120" height="80" as="geometry" />
        </mxCell>
        <mxCell id="5pTp0WcjzD7RnIztmCAo-5" value="tính phí vận chuyển" style="ellipse;whiteSpace=wrap;html=1;" vertex="1" parent="1">
          <mxGeometry x="790" y="390" width="120" height="80" as="geometry" />
        </mxCell>
        <mxCell id="5pTp0WcjzD7RnIztmCAo-6" style="rounded=0;orthogonalLoop=1;jettySize=auto;html=1;exitX=0.5;exitY=0.5;exitDx=0;exitDy=0;exitPerimeter=0;entryX=0;entryY=0.5;entryDx=0;entryDy=0;" edge="1" parent="1" source="5pTp0WcjzD7RnIztmCAo-1" target="5pTp0WcjzD7RnIztmCAo-3">
          <mxGeometry relative="1" as="geometry" />
        </mxCell>
      </root>
    </mxGraphModel>
  </diagram>
</mxfile>
